<?xml version="1.0" encoding="UTF-8" standalone="no"?><!DOCTYPE svg PUBLIC "-//W3C//DTD SVG 1.1//EN" "http://www.w3.org/Graphics/SVG/1.1/DTD/svg11.dtd"><!-- Generated by graphviz version 2.40.1 (20161225.0304)
 --><!-- Title: %0 Pages: 1 --><svg xmlns="http://www.w3.org/2000/svg" xmlns:xlink="http://www.w3.org/1999/xlink" width="181pt" height="2348pt" viewBox="0.00 0.00 181.00 2348.00">
<g id="graph0" class="graph" transform="scale(1 1) rotate(0) translate(4 2344)">
<title>%0</title>
<polygon fill="#ffffff" stroke="transparent" points="-4,4 -4,-2344 177,-2344 177,4 -4,4"/>
<!-- 33 -->
<g id="node1" class="node">
<title>33</title>
<ellipse fill="none" stroke="#000000" cx="36" cy="-810" rx="27" ry="18"/>
<text text-anchor="middle" x="36" y="-805.8" font-family="Times,serif" font-size="14.00" fill="#000000">33</text>
</g>
<!-- 34 -->
<g id="node18" class="node">
<title>34</title>
<ellipse fill="none" stroke="#000000" cx="91" cy="-738" rx="27" ry="18"/>
<text text-anchor="middle" x="91" y="-733.8" font-family="Times,serif" font-size="14.00" fill="#000000">34</text>
</g>
<!-- 33&#45;&gt;34 -->
<g id="edge1" class="edge">
<title>33-&gt;34</title>
<path fill="none" stroke="#000000" d="M48.4804,-793.6621C55.5124,-784.4564 64.4347,-772.7764 72.2883,-762.4953"/>
<polygon fill="#000000" stroke="#000000" points="75.28,-764.3446 78.569,-754.2733 69.7172,-760.0953 75.28,-764.3446"/>
</g>
<!-- 35 -->
<g id="node31" class="node">
<title>35</title>
<ellipse fill="none" stroke="#000000" cx="91" cy="-666" rx="27" ry="18"/>
<text text-anchor="middle" x="91" y="-661.8" font-family="Times,serif" font-size="14.00" fill="#000000">35</text>
</g>
<!-- 33&#45;&gt;35 -->
<g id="edge2" class="edge">
<title>33-&gt;35</title>
<path fill="none" stroke="#000000" d="M37.7905,-791.8083C40.0888,-773.1875 45.0345,-743.7008 55,-720 59.3236,-709.7173 65.687,-699.3119 71.866,-690.4164"/>
<polygon fill="#000000" stroke="#000000" points="74.8693,-692.2365 77.9011,-682.0847 69.2002,-688.1301 74.8693,-692.2365"/>
</g>
<!-- 1 -->
<g id="node2" class="node">
<title>1</title>
<ellipse fill="none" stroke="#000000" cx="65" cy="-2250" rx="27" ry="18"/>
<text text-anchor="middle" x="65" y="-2245.8" font-family="Times,serif" font-size="14.00" fill="#000000">1</text>
</g>
<!-- 2 -->
<g id="node4" class="node">
<title>2</title>
<ellipse fill="none" stroke="#000000" cx="120" cy="-2178" rx="27" ry="18"/>
<text text-anchor="middle" x="120" y="-2173.8" font-family="Times,serif" font-size="14.00" fill="#000000">2</text>
</g>
<!-- 1&#45;&gt;2 -->
<g id="edge5" class="edge">
<title>1-&gt;2</title>
<path fill="none" stroke="#000000" d="M77.4804,-2233.6621C84.5124,-2224.4564 93.4347,-2212.7764 101.2883,-2202.4953"/>
<polygon fill="#000000" stroke="#000000" points="104.28,-2204.3446 107.569,-2194.2733 98.7172,-2200.0953 104.28,-2204.3446"/>
</g>
<!-- 4 -->
<g id="node9" class="node">
<title>4</title>
<ellipse fill="none" stroke="#000000" cx="82" cy="-2034" rx="27" ry="18"/>
<text text-anchor="middle" x="82" y="-2029.8" font-family="Times,serif" font-size="14.00" fill="#000000">4</text>
</g>
<!-- 1&#45;&gt;4 -->
<g id="edge4" class="edge">
<title>1-&gt;4</title>
<path fill="none" stroke="#000000" d="M58.2588,-2232.0834C47.866,-2201.7615 30.6547,-2138.6821 46,-2088 49.2661,-2077.2127 55.4764,-2066.6108 61.8313,-2057.6963"/>
<polygon fill="#000000" stroke="#000000" points="64.6285,-2059.8001 67.8771,-2049.7156 59.0487,-2055.5732 64.6285,-2059.8001"/>
</g>
<!-- 3 -->
<g id="node27" class="node">
<title>3</title>
<ellipse fill="none" stroke="#000000" cx="82" cy="-2106" rx="27" ry="18"/>
<text text-anchor="middle" x="82" y="-2101.8" font-family="Times,serif" font-size="14.00" fill="#000000">3</text>
</g>
<!-- 1&#45;&gt;3 -->
<g id="edge3" class="edge">
<title>1-&gt;3</title>
<path fill="none" stroke="#000000" d="M67.1187,-2232.0535C70.0073,-2207.5852 75.213,-2163.4896 78.6378,-2134.4799"/>
<polygon fill="#000000" stroke="#000000" points="82.158,-2134.5141 79.8546,-2124.1727 75.2062,-2133.6934 82.158,-2134.5141"/>
</g>
<!-- 11 -->
<g id="node3" class="node">
<title>11</title>
<ellipse fill="none" stroke="#000000" cx="82" cy="-1674" rx="27" ry="18"/>
<text text-anchor="middle" x="82" y="-1669.8" font-family="Times,serif" font-size="14.00" fill="#000000">11</text>
</g>
<!-- 14 -->
<g id="node32" class="node">
<title>14</title>
<ellipse fill="none" stroke="#000000" cx="82" cy="-1602" rx="27" ry="18"/>
<text text-anchor="middle" x="82" y="-1597.8" font-family="Times,serif" font-size="14.00" fill="#000000">14</text>
</g>
<!-- 11&#45;&gt;14 -->
<g id="edge6" class="edge">
<title>11-&gt;14</title>
<path fill="none" stroke="#000000" d="M82,-1655.8314C82,-1648.131 82,-1638.9743 82,-1630.4166"/>
<polygon fill="#000000" stroke="#000000" points="85.5001,-1630.4132 82,-1620.4133 78.5001,-1630.4133 85.5001,-1630.4132"/>
</g>
<!-- 2&#45;&gt;4 -->
<g id="edge8" class="edge">
<title>2-&gt;4</title>
<path fill="none" stroke="#000000" d="M122.5009,-2159.9321C124.4011,-2141.4098 125.5588,-2112.0003 118,-2088 114.6142,-2077.2497 108.3778,-2066.6558 102.0355,-2057.7375"/>
<polygon fill="#000000" stroke="#000000" points="104.8274,-2055.6267 96.0118,-2049.7499 99.2385,-2059.8414 104.8274,-2055.6267"/>
</g>
<!-- 2&#45;&gt;3 -->
<g id="edge7" class="edge">
<title>2-&gt;3</title>
<path fill="none" stroke="#000000" d="M110.9945,-2160.937C106.5172,-2152.4537 101.0048,-2142.0092 95.993,-2132.513"/>
<polygon fill="#000000" stroke="#000000" points="98.9678,-2130.6509 91.2048,-2123.4407 92.7771,-2133.9182 98.9678,-2130.6509"/>
</g>
<!-- 23 -->
<g id="node5" class="node">
<title>23</title>
<ellipse fill="none" stroke="#000000" cx="91" cy="-1242" rx="27" ry="18"/>
<text text-anchor="middle" x="91" y="-1237.8" font-family="Times,serif" font-size="14.00" fill="#000000">23</text>
</g>
<!-- 25 -->
<g id="node15" class="node">
<title>25</title>
<ellipse fill="none" stroke="#000000" cx="91" cy="-1098" rx="27" ry="18"/>
<text text-anchor="middle" x="91" y="-1093.8" font-family="Times,serif" font-size="14.00" fill="#000000">25</text>
</g>
<!-- 23&#45;&gt;25 -->
<g id="edge10" class="edge">
<title>23-&gt;25</title>
<path fill="none" stroke="#000000" d="M87.6685,-1224.0736C85.8913,-1213.5982 83.8913,-1200.0982 83,-1188 81.8244,-1172.0432 81.8244,-1167.9568 83,-1152 83.6267,-1143.4935 84.8015,-1134.2939 86.0616,-1125.9399"/>
<polygon fill="#000000" stroke="#000000" points="89.5398,-1126.3546 87.6685,-1115.9264 82.6282,-1125.2455 89.5398,-1126.3546"/>
</g>
<!-- 24 -->
<g id="node23" class="node">
<title>24</title>
<ellipse fill="none" stroke="#000000" cx="119" cy="-1170" rx="27" ry="18"/>
<text text-anchor="middle" x="119" y="-1165.8" font-family="Times,serif" font-size="14.00" fill="#000000">24</text>
</g>
<!-- 23&#45;&gt;24 -->
<g id="edge9" class="edge">
<title>23-&gt;24</title>
<path fill="none" stroke="#000000" d="M97.778,-1224.5708C100.9872,-1216.3187 104.8935,-1206.2738 108.4758,-1197.0623"/>
<polygon fill="#000000" stroke="#000000" points="111.8248,-1198.1069 112.1874,-1187.5182 105.3008,-1195.5697 111.8248,-1198.1069"/>
</g>
<!-- 45 -->
<g id="node6" class="node">
<title>45</title>
<ellipse fill="none" stroke="#000000" cx="91" cy="-378" rx="27" ry="18"/>
<text text-anchor="middle" x="91" y="-373.8" font-family="Times,serif" font-size="14.00" fill="#000000">45</text>
</g>
<!-- 48 -->
<g id="node10" class="node">
<title>48</title>
<ellipse fill="none" stroke="#000000" cx="36" cy="-162" rx="27" ry="18"/>
<text text-anchor="middle" x="36" y="-157.8" font-family="Times,serif" font-size="14.00" fill="#000000">48</text>
</g>
<!-- 45&#45;&gt;48 -->
<g id="edge11" class="edge">
<title>45-&gt;48</title>
<path fill="none" stroke="#000000" d="M77.4564,-362.0904C69.544,-351.8797 60.1331,-337.959 55,-324 38.5801,-279.3472 35.5289,-223.5299 35.3714,-190.4343"/>
<polygon fill="#000000" stroke="#000000" points="38.8725,-190.1449 35.4137,-180.1306 31.8725,-190.1161 38.8725,-190.1449"/>
</g>
<!-- 46 -->
<g id="node14" class="node">
<title>46</title>
<ellipse fill="none" stroke="#000000" cx="91" cy="-306" rx="27" ry="18"/>
<text text-anchor="middle" x="91" y="-301.8" font-family="Times,serif" font-size="14.00" fill="#000000">46</text>
</g>
<!-- 45&#45;&gt;46 -->
<g id="edge12" class="edge">
<title>45-&gt;46</title>
<path fill="none" stroke="#000000" d="M91,-359.8314C91,-352.131 91,-342.9743 91,-334.4166"/>
<polygon fill="#000000" stroke="#000000" points="94.5001,-334.4132 91,-324.4133 87.5001,-334.4133 94.5001,-334.4132"/>
</g>
<!-- 47 -->
<g id="node21" class="node">
<title>47</title>
<ellipse fill="none" stroke="#000000" cx="146" cy="-234" rx="27" ry="18"/>
<text text-anchor="middle" x="146" y="-229.8" font-family="Times,serif" font-size="14.00" fill="#000000">47</text>
</g>
<!-- 45&#45;&gt;47 -->
<g id="edge13" class="edge">
<title>45-&gt;47</title>
<path fill="none" stroke="#000000" d="M104.0989,-361.9153C111.8441,-351.6387 121.2352,-337.7102 127,-324 135.3306,-304.1876 140.1533,-280.3321 142.8541,-262.1605"/>
<polygon fill="#000000" stroke="#000000" points="146.3302,-262.5721 144.2095,-252.1917 139.3941,-261.6289 146.3302,-262.5721"/>
</g>
<!-- 20 -->
<g id="node7" class="node">
<title>20</title>
<ellipse fill="none" stroke="#000000" cx="91" cy="-1314" rx="27" ry="18"/>
<text text-anchor="middle" x="91" y="-1309.8" font-family="Times,serif" font-size="14.00" fill="#000000">20</text>
</g>
<!-- 20&#45;&gt;23 -->
<g id="edge14" class="edge">
<title>20-&gt;23</title>
<path fill="none" stroke="#000000" d="M91,-1295.8314C91,-1288.131 91,-1278.9743 91,-1270.4166"/>
<polygon fill="#000000" stroke="#000000" points="94.5001,-1270.4132 91,-1260.4133 87.5001,-1270.4133 94.5001,-1270.4132"/>
</g>
<!-- 52 -->
<g id="node8" class="node">
<title>52</title>
<ellipse fill="none" stroke="#000000" cx="91" cy="-18" rx="27" ry="18"/>
<text text-anchor="middle" x="91" y="-13.8" font-family="Times,serif" font-size="14.00" fill="#000000">52</text>
</g>
<!-- 7 -->
<g id="node17" class="node">
<title>7</title>
<ellipse fill="none" stroke="#000000" cx="82" cy="-1962" rx="27" ry="18"/>
<text text-anchor="middle" x="82" y="-1957.8" font-family="Times,serif" font-size="14.00" fill="#000000">7</text>
</g>
<!-- 4&#45;&gt;7 -->
<g id="edge15" class="edge">
<title>4-&gt;7</title>
<path fill="none" stroke="#000000" d="M82,-2015.8314C82,-2008.131 82,-1998.9743 82,-1990.4166"/>
<polygon fill="#000000" stroke="#000000" points="85.5001,-1990.4132 82,-1980.4133 78.5001,-1990.4133 85.5001,-1990.4132"/>
</g>
<!-- 49 -->
<g id="node11" class="node">
<title>49</title>
<ellipse fill="none" stroke="#000000" cx="91" cy="-90" rx="27" ry="18"/>
<text text-anchor="middle" x="91" y="-85.8" font-family="Times,serif" font-size="14.00" fill="#000000">49</text>
</g>
<!-- 48&#45;&gt;49 -->
<g id="edge16" class="edge">
<title>48-&gt;49</title>
<path fill="none" stroke="#000000" d="M48.4804,-145.6621C55.5124,-136.4564 64.4347,-124.7764 72.2883,-114.4953"/>
<polygon fill="#000000" stroke="#000000" points="75.28,-116.3446 78.569,-106.2733 69.7172,-112.0953 75.28,-116.3446"/>
</g>
<!-- 49&#45;&gt;52 -->
<g id="edge17" class="edge">
<title>49-&gt;52</title>
<path fill="none" stroke="#000000" d="M91,-71.8314C91,-64.131 91,-54.9743 91,-46.4166"/>
<polygon fill="#000000" stroke="#000000" points="94.5001,-46.4132 91,-36.4133 87.5001,-46.4133 94.5001,-46.4132"/>
</g>
<!-- 9 -->
<g id="node12" class="node">
<title>9</title>
<ellipse fill="none" stroke="#000000" cx="27" cy="-1818" rx="27" ry="18"/>
<text text-anchor="middle" x="27" y="-1813.8" font-family="Times,serif" font-size="14.00" fill="#000000">9</text>
</g>
<!-- 9&#45;&gt;11 -->
<g id="edge19" class="edge">
<title>9-&gt;11</title>
<path fill="none" stroke="#000000" d="M33.7441,-1800.3428C43.1867,-1775.6202 60.4351,-1730.4608 71.5485,-1701.3639"/>
<polygon fill="#000000" stroke="#000000" points="74.9023,-1702.3923 75.2008,-1691.8017 68.363,-1699.8946 74.9023,-1702.3923"/>
</g>
<!-- 10 -->
<g id="node22" class="node">
<title>10</title>
<ellipse fill="none" stroke="#000000" cx="137" cy="-1746" rx="27" ry="18"/>
<text text-anchor="middle" x="137" y="-1741.8" font-family="Times,serif" font-size="14.00" fill="#000000">10</text>
</g>
<!-- 9&#45;&gt;10 -->
<g id="edge18" class="edge">
<title>9-&gt;10</title>
<path fill="none" stroke="#000000" d="M46.4126,-1805.2936C63.742,-1793.9507 89.3318,-1777.201 108.8972,-1764.3946"/>
<polygon fill="#000000" stroke="#000000" points="110.9613,-1767.2267 117.4115,-1758.8216 107.1276,-1761.3698 110.9613,-1767.2267"/>
</g>
<!-- 19 -->
<g id="node13" class="node">
<title>19</title>
<ellipse fill="none" stroke="#000000" cx="36" cy="-1386" rx="27" ry="18"/>
<text text-anchor="middle" x="36" y="-1381.8" font-family="Times,serif" font-size="14.00" fill="#000000">19</text>
</g>
<!-- 19&#45;&gt;20 -->
<g id="edge20" class="edge">
<title>19-&gt;20</title>
<path fill="none" stroke="#000000" d="M48.4804,-1369.6621C55.5124,-1360.4564 64.4347,-1348.7764 72.2883,-1338.4953"/>
<polygon fill="#000000" stroke="#000000" points="75.28,-1340.3446 78.569,-1330.2733 69.7172,-1336.0953 75.28,-1340.3446"/>
</g>
<!-- 46&#45;&gt;48 -->
<g id="edge21" class="edge">
<title>46-&gt;48</title>
<path fill="none" stroke="#000000" d="M84.2559,-288.3428C74.8133,-263.6202 57.5649,-218.4608 46.4515,-189.3639"/>
<polygon fill="#000000" stroke="#000000" points="49.637,-187.8946 42.7992,-179.8017 43.0977,-190.3923 49.637,-187.8946"/>
</g>
<!-- 46&#45;&gt;49 -->
<g id="edge22" class="edge">
<title>46-&gt;49</title>
<path fill="none" stroke="#000000" d="M91,-287.9555C91,-250.3938 91,-163.5541 91,-118.4103"/>
<polygon fill="#000000" stroke="#000000" points="94.5001,-118.145 91,-108.1451 87.5001,-118.1451 94.5001,-118.145"/>
</g>
<!-- 46&#45;&gt;47 -->
<g id="edge23" class="edge">
<title>46-&gt;47</title>
<path fill="none" stroke="#000000" d="M103.4804,-289.6621C110.5124,-280.4564 119.4347,-268.7764 127.2883,-258.4953"/>
<polygon fill="#000000" stroke="#000000" points="130.28,-260.3446 133.569,-250.2733 124.7172,-256.0953 130.28,-260.3446"/>
</g>
<!-- 28 -->
<g id="node25" class="node">
<title>28</title>
<ellipse fill="none" stroke="#000000" cx="91" cy="-1026" rx="27" ry="18"/>
<text text-anchor="middle" x="91" y="-1021.8" font-family="Times,serif" font-size="14.00" fill="#000000">28</text>
</g>
<!-- 25&#45;&gt;28 -->
<g id="edge24" class="edge">
<title>25-&gt;28</title>
<path fill="none" stroke="#000000" d="M91,-1079.8314C91,-1072.131 91,-1062.9743 91,-1054.4166"/>
<polygon fill="#000000" stroke="#000000" points="94.5001,-1054.4132 91,-1044.4133 87.5001,-1054.4133 94.5001,-1054.4132"/>
</g>
<!-- 38 -->
<g id="node16" class="node">
<title>38</title>
<ellipse fill="none" stroke="#000000" cx="91" cy="-594" rx="27" ry="18"/>
<text text-anchor="middle" x="91" y="-589.8" font-family="Times,serif" font-size="14.00" fill="#000000">38</text>
</g>
<!-- 39 -->
<g id="node28" class="node">
<title>39</title>
<ellipse fill="none" stroke="#000000" cx="91" cy="-522" rx="27" ry="18"/>
<text text-anchor="middle" x="91" y="-517.8" font-family="Times,serif" font-size="14.00" fill="#000000">39</text>
</g>
<!-- 38&#45;&gt;39 -->
<g id="edge25" class="edge">
<title>38-&gt;39</title>
<path fill="none" stroke="#000000" d="M91,-575.8314C91,-568.131 91,-558.9743 91,-550.4166"/>
<polygon fill="#000000" stroke="#000000" points="94.5001,-550.4132 91,-540.4133 87.5001,-550.4133 94.5001,-550.4132"/>
</g>
<!-- 7&#45;&gt;9 -->
<g id="edge26" class="edge">
<title>7-&gt;9</title>
<path fill="none" stroke="#000000" d="M68.9011,-1945.9153C61.1559,-1935.6387 51.7648,-1921.7102 46,-1908 37.6694,-1888.1876 32.8467,-1864.3321 30.1459,-1846.1605"/>
<polygon fill="#000000" stroke="#000000" points="33.6059,-1845.6289 28.7905,-1836.1917 26.6698,-1846.5721 33.6059,-1845.6289"/>
</g>
<!-- 8 -->
<g id="node19" class="node">
<title>8</title>
<ellipse fill="none" stroke="#000000" cx="82" cy="-1890" rx="27" ry="18"/>
<text text-anchor="middle" x="82" y="-1885.8" font-family="Times,serif" font-size="14.00" fill="#000000">8</text>
</g>
<!-- 7&#45;&gt;8 -->
<g id="edge28" class="edge">
<title>7-&gt;8</title>
<path fill="none" stroke="#000000" d="M82,-1943.8314C82,-1936.131 82,-1926.9743 82,-1918.4166"/>
<polygon fill="#000000" stroke="#000000" points="85.5001,-1918.4132 82,-1908.4133 78.5001,-1918.4133 85.5001,-1918.4132"/>
</g>
<!-- 7&#45;&gt;10 -->
<g id="edge27" class="edge">
<title>7-&gt;10</title>
<path fill="none" stroke="#000000" d="M95.5436,-1946.0904C103.456,-1935.8797 112.8669,-1921.959 118,-1908 134.4199,-1863.3472 137.4711,-1807.5299 137.6286,-1774.4343"/>
<polygon fill="#000000" stroke="#000000" points="141.1275,-1774.1161 137.5863,-1764.1306 134.1275,-1774.1449 141.1275,-1774.1161"/>
</g>
<!-- 34&#45;&gt;35 -->
<g id="edge29" class="edge">
<title>34-&gt;35</title>
<path fill="none" stroke="#000000" d="M91,-719.8314C91,-712.131 91,-702.9743 91,-694.4166"/>
<polygon fill="#000000" stroke="#000000" points="94.5001,-694.4132 91,-684.4133 87.5001,-694.4133 94.5001,-694.4132"/>
</g>
<!-- 8&#45;&gt;11 -->
<g id="edge32" class="edge">
<title>8-&gt;11</title>
<path fill="none" stroke="#000000" d="M82,-1871.9555C82,-1834.3938 82,-1747.5541 82,-1702.4103"/>
<polygon fill="#000000" stroke="#000000" points="85.5001,-1702.145 82,-1692.1451 78.5001,-1702.1451 85.5001,-1702.145"/>
</g>
<!-- 8&#45;&gt;9 -->
<g id="edge30" class="edge">
<title>8-&gt;9</title>
<path fill="none" stroke="#000000" d="M69.5196,-1873.6621C62.4876,-1864.4564 53.5653,-1852.7764 45.7117,-1842.4953"/>
<polygon fill="#000000" stroke="#000000" points="48.2828,-1840.0953 39.431,-1834.2733 42.72,-1844.3446 48.2828,-1840.0953"/>
</g>
<!-- 8&#45;&gt;10 -->
<g id="edge31" class="edge">
<title>8-&gt;10</title>
<path fill="none" stroke="#000000" d="M88.7441,-1872.3428C98.1867,-1847.6202 115.4351,-1802.4608 126.5485,-1773.3639"/>
<polygon fill="#000000" stroke="#000000" points="129.9023,-1774.3923 130.2008,-1763.8017 123.363,-1771.8946 129.9023,-1774.3923"/>
</g>
<!-- 0 -->
<g id="node20" class="node">
<title>0</title>
<ellipse fill="none" stroke="#000000" cx="65" cy="-2322" rx="27" ry="18"/>
<text text-anchor="middle" x="65" y="-2317.8" font-family="Times,serif" font-size="14.00" fill="#000000">0</text>
</g>
<!-- 0&#45;&gt;1 -->
<g id="edge33" class="edge">
<title>0-&gt;1</title>
<path fill="none" stroke="#000000" d="M65,-2303.8314C65,-2296.131 65,-2286.9743 65,-2278.4166"/>
<polygon fill="#000000" stroke="#000000" points="68.5001,-2278.4132 65,-2268.4133 61.5001,-2278.4133 68.5001,-2278.4132"/>
</g>
<!-- 0&#45;&gt;2 -->
<g id="edge35" class="edge">
<title>0-&gt;2</title>
<path fill="none" stroke="#000000" d="M78.0989,-2305.9153C85.8441,-2295.6387 95.2352,-2281.7102 101,-2268 109.3306,-2248.1876 114.1533,-2224.3321 116.8541,-2206.1605"/>
<polygon fill="#000000" stroke="#000000" points="120.3302,-2206.5721 118.2095,-2196.1917 113.3941,-2205.6289 120.3302,-2206.5721"/>
</g>
<!-- 0&#45;&gt;3 -->
<g id="edge34" class="edge">
<title>0-&gt;3</title>
<path fill="none" stroke="#000000" d="M50.8771,-2306.2844C42.7465,-2296.1468 33.3099,-2282.2347 29,-2268 24.3635,-2252.6865 25.8357,-2247.684 29,-2232 36.3338,-2195.6502 54.4608,-2156.7316 67.4727,-2131.9228"/>
<polygon fill="#000000" stroke="#000000" points="70.708,-2133.2954 72.3468,-2122.8281 64.5382,-2129.9888 70.708,-2133.2954"/>
</g>
<!-- 47&#45;&gt;48 -->
<g id="edge36" class="edge">
<title>47-&gt;48</title>
<path fill="none" stroke="#000000" d="M126.5874,-221.2936C109.258,-209.9507 83.6682,-193.201 64.1028,-180.3946"/>
<polygon fill="#000000" stroke="#000000" points="65.8724,-177.3698 55.5885,-174.8216 62.0387,-183.2267 65.8724,-177.3698"/>
</g>
<!-- 47&#45;&gt;49 -->
<g id="edge37" class="edge">
<title>47-&gt;49</title>
<path fill="none" stroke="#000000" d="M139.2559,-216.3428C129.8133,-191.6202 112.5649,-146.4608 101.4515,-117.3639"/>
<polygon fill="#000000" stroke="#000000" points="104.637,-115.8946 97.7992,-107.8017 98.0977,-118.3923 104.637,-115.8946"/>
</g>
<!-- 10&#45;&gt;11 -->
<g id="edge38" class="edge">
<title>10-&gt;11</title>
<path fill="none" stroke="#000000" d="M124.5196,-1729.6621C117.4876,-1720.4564 108.5653,-1708.7764 100.7117,-1698.4953"/>
<polygon fill="#000000" stroke="#000000" points="103.2828,-1696.0953 94.431,-1690.2733 97.72,-1700.3446 103.2828,-1696.0953"/>
</g>
<!-- 24&#45;&gt;25 -->
<g id="edge39" class="edge">
<title>24-&gt;25</title>
<path fill="none" stroke="#000000" d="M112.222,-1152.5708C109.0128,-1144.3187 105.1065,-1134.2738 101.5242,-1125.0623"/>
<polygon fill="#000000" stroke="#000000" points="104.6992,-1123.5697 97.8126,-1115.5182 98.1752,-1126.1069 104.6992,-1123.5697"/>
</g>
<!-- 42 -->
<g id="node24" class="node">
<title>42</title>
<ellipse fill="none" stroke="#000000" cx="91" cy="-450" rx="27" ry="18"/>
<text text-anchor="middle" x="91" y="-445.8" font-family="Times,serif" font-size="14.00" fill="#000000">42</text>
</g>
<!-- 42&#45;&gt;45 -->
<g id="edge40" class="edge">
<title>42-&gt;45</title>
<path fill="none" stroke="#000000" d="M91,-431.8314C91,-424.131 91,-414.9743 91,-406.4166"/>
<polygon fill="#000000" stroke="#000000" points="94.5001,-406.4132 91,-396.4133 87.5001,-406.4133 94.5001,-406.4132"/>
</g>
<!-- 31 -->
<g id="node29" class="node">
<title>31</title>
<ellipse fill="none" stroke="#000000" cx="91" cy="-954" rx="27" ry="18"/>
<text text-anchor="middle" x="91" y="-949.8" font-family="Times,serif" font-size="14.00" fill="#000000">31</text>
</g>
<!-- 28&#45;&gt;31 -->
<g id="edge41" class="edge">
<title>28-&gt;31</title>
<path fill="none" stroke="#000000" d="M91,-1007.8314C91,-1000.131 91,-990.9743 91,-982.4166"/>
<polygon fill="#000000" stroke="#000000" points="94.5001,-982.4132 91,-972.4133 87.5001,-982.4133 94.5001,-982.4132"/>
</g>
<!-- 18 -->
<g id="node26" class="node">
<title>18</title>
<ellipse fill="none" stroke="#000000" cx="82" cy="-1458" rx="27" ry="18"/>
<text text-anchor="middle" x="82" y="-1453.8" font-family="Times,serif" font-size="14.00" fill="#000000">18</text>
</g>
<!-- 18&#45;&gt;20 -->
<g id="edge42" class="edge">
<title>18-&gt;20</title>
<path fill="none" stroke="#000000" d="M83.1399,-1439.7623C84.6749,-1415.201 87.422,-1371.2474 89.2279,-1342.3541"/>
<polygon fill="#000000" stroke="#000000" points="92.7387,-1342.2885 89.8694,-1332.0896 85.7523,-1341.8518 92.7387,-1342.2885"/>
</g>
<!-- 18&#45;&gt;19 -->
<g id="edge43" class="edge">
<title>18-&gt;19</title>
<path fill="none" stroke="#000000" d="M71.3311,-1441.3008C65.6414,-1432.3952 58.5223,-1421.2524 52.1684,-1411.307"/>
<polygon fill="#000000" stroke="#000000" points="54.9445,-1409.1513 46.6111,-1402.6087 49.0456,-1412.92 54.9445,-1409.1513"/>
</g>
<!-- 3&#45;&gt;4 -->
<g id="edge44" class="edge">
<title>3-&gt;4</title>
<path fill="none" stroke="#000000" d="M82,-2087.8314C82,-2080.131 82,-2070.9743 82,-2062.4166"/>
<polygon fill="#000000" stroke="#000000" points="85.5001,-2062.4132 82,-2052.4133 78.5001,-2062.4133 85.5001,-2062.4132"/>
</g>
<!-- 39&#45;&gt;42 -->
<g id="edge45" class="edge">
<title>39-&gt;42</title>
<path fill="none" stroke="#000000" d="M91,-503.8314C91,-496.131 91,-486.9743 91,-478.4166"/>
<polygon fill="#000000" stroke="#000000" points="94.5001,-478.4132 91,-468.4133 87.5001,-478.4133 94.5001,-478.4132"/>
</g>
<!-- 31&#45;&gt;33 -->
<g id="edge46" class="edge">
<title>31-&gt;33</title>
<path fill="none" stroke="#000000" d="M84.2559,-936.3428C74.8133,-911.6202 57.5649,-866.4608 46.4515,-837.3639"/>
<polygon fill="#000000" stroke="#000000" points="49.637,-835.8946 42.7992,-827.8017 43.0977,-838.3923 49.637,-835.8946"/>
</g>
<!-- 31&#45;&gt;34 -->
<g id="edge48" class="edge">
<title>31-&gt;34</title>
<path fill="none" stroke="#000000" d="M91,-935.9555C91,-898.3938 91,-811.5541 91,-766.4103"/>
<polygon fill="#000000" stroke="#000000" points="94.5001,-766.145 91,-756.1451 87.5001,-766.1451 94.5001,-766.145"/>
</g>
<!-- 32 -->
<g id="node33" class="node">
<title>32</title>
<ellipse fill="none" stroke="#000000" cx="146" cy="-882" rx="27" ry="18"/>
<text text-anchor="middle" x="146" y="-877.8" font-family="Times,serif" font-size="14.00" fill="#000000">32</text>
</g>
<!-- 31&#45;&gt;32 -->
<g id="edge47" class="edge">
<title>31-&gt;32</title>
<path fill="none" stroke="#000000" d="M103.4804,-937.6621C110.5124,-928.4564 119.4347,-916.7764 127.2883,-906.4953"/>
<polygon fill="#000000" stroke="#000000" points="130.28,-908.3446 133.569,-898.2733 124.7172,-904.0953 130.28,-908.3446"/>
</g>
<!-- 17 -->
<g id="node30" class="node">
<title>17</title>
<ellipse fill="none" stroke="#000000" cx="82" cy="-1530" rx="27" ry="18"/>
<text text-anchor="middle" x="82" y="-1525.8" font-family="Times,serif" font-size="14.00" fill="#000000">17</text>
</g>
<!-- 17&#45;&gt;20 -->
<g id="edge49" class="edge">
<title>17-&gt;20</title>
<path fill="none" stroke="#000000" d="M96.1229,-1514.2844C104.2535,-1504.1468 113.6901,-1490.2347 118,-1476 132.0774,-1429.5055 115.458,-1373.1436 102.7657,-1340.642"/>
<polygon fill="#000000" stroke="#000000" points="105.9999,-1339.3039 98.9911,-1331.3587 99.5154,-1341.9405 105.9999,-1339.3039"/>
</g>
<!-- 17&#45;&gt;19 -->
<g id="edge50" class="edge">
<title>17-&gt;19</title>
<path fill="none" stroke="#000000" d="M68.4265,-1514.1013C60.5027,-1503.8948 51.0905,-1489.9746 46,-1476 38.792,-1456.2124 36.3893,-1432.4903 35.7367,-1414.3693"/>
<polygon fill="#000000" stroke="#000000" points="39.2317,-1414.0852 35.5302,-1404.158 32.2332,-1414.2267 39.2317,-1414.0852"/>
</g>
<!-- 17&#45;&gt;18 -->
<g id="edge51" class="edge">
<title>17-&gt;18</title>
<path fill="none" stroke="#000000" d="M82,-1511.8314C82,-1504.131 82,-1494.9743 82,-1486.4166"/>
<polygon fill="#000000" stroke="#000000" points="85.5001,-1486.4132 82,-1476.4133 78.5001,-1486.4133 85.5001,-1486.4132"/>
</g>
<!-- 35&#45;&gt;38 -->
<g id="edge52" class="edge">
<title>35-&gt;38</title>
<path fill="none" stroke="#000000" d="M91,-647.8314C91,-640.131 91,-630.9743 91,-622.4166"/>
<polygon fill="#000000" stroke="#000000" points="94.5001,-622.4132 91,-612.4133 87.5001,-622.4133 94.5001,-622.4132"/>
</g>
<!-- 14&#45;&gt;17 -->
<g id="edge53" class="edge">
<title>14-&gt;17</title>
<path fill="none" stroke="#000000" d="M82,-1583.8314C82,-1576.131 82,-1566.9743 82,-1558.4166"/>
<polygon fill="#000000" stroke="#000000" points="85.5001,-1558.4132 82,-1548.4133 78.5001,-1558.4133 85.5001,-1558.4132"/>
</g>
<!-- 32&#45;&gt;33 -->
<g id="edge54" class="edge">
<title>32-&gt;33</title>
<path fill="none" stroke="#000000" d="M126.5874,-869.2936C109.258,-857.9507 83.6682,-841.201 64.1028,-828.3946"/>
<polygon fill="#000000" stroke="#000000" points="65.8724,-825.3698 55.5885,-822.8216 62.0387,-831.2267 65.8724,-825.3698"/>
</g>
<!-- 32&#45;&gt;34 -->
<g id="edge55" class="edge">
<title>32-&gt;34</title>
<path fill="none" stroke="#000000" d="M139.2559,-864.3428C129.8133,-839.6202 112.5649,-794.4608 101.4515,-765.3639"/>
<polygon fill="#000000" stroke="#000000" points="104.637,-763.8946 97.7992,-755.8017 98.0977,-766.3923 104.637,-763.8946"/>
</g>
<!-- 32&#45;&gt;35 -->
<g id="edge56" class="edge">
<title>32-&gt;35</title>
<path fill="none" stroke="#000000" d="M146.5863,-863.8694C146.99,-833.2324 145.2761,-769.7005 127,-720 123.1502,-709.5307 116.8941,-699.083 110.6686,-690.2059"/>
<polygon fill="#000000" stroke="#000000" points="113.2989,-687.8758 104.5436,-681.9096 107.6674,-692.0335 113.2989,-687.8758"/>
</g>
</g>
</svg>