<?xml version="1.0" encoding="UTF-8" standalone="no"?><!DOCTYPE svg PUBLIC "-//W3C//DTD SVG 1.1//EN" "http://www.w3.org/Graphics/SVG/1.1/DTD/svg11.dtd"><!-- Generated by graphviz version 2.40.1 (20161225.0304)
 --><!-- Title: %0 Pages: 1 --><svg xmlns="http://www.w3.org/2000/svg" xmlns:xlink="http://www.w3.org/1999/xlink" width="123pt" height="908pt" viewBox="0.00 0.00 123.35 908.00">
<g id="graph0" class="graph" transform="scale(1 1) rotate(0) translate(4 904)">
<title>%0</title>
<polygon fill="#ffffff" stroke="transparent" points="-4,4 -4,-904 119.3459,-904 119.3459,4 -4,4"/>
<!-- 1 -->
<g id="node1" class="node">
<title>1</title>
<ellipse fill="none" stroke="#000000" cx="82" cy="-810" rx="27" ry="18"/>
<text text-anchor="middle" x="82" y="-805.8" font-family="Times,serif" font-size="14.00" fill="#000000">1</text>
</g>
<!-- 4 -->
<g id="node8" class="node">
<title>4</title>
<ellipse fill="none" stroke="#000000" cx="82" cy="-738" rx="27" ry="18"/>
<text text-anchor="middle" x="82" y="-733.8" font-family="Times,serif" font-size="14.00" fill="#000000">4</text>
</g>
<!-- 1&#45;&gt;4 -->
<g id="edge1" class="edge">
<title>1-&gt;4</title>
<path fill="none" stroke="#000000" d="M82,-791.8314C82,-784.131 82,-774.9743 82,-766.4166"/>
<polygon fill="#000000" stroke="#000000" points="85.5001,-766.4132 82,-756.4133 78.5001,-766.4133 85.5001,-766.4132"/>
</g>
<!-- 5 -->
<g id="node2" class="node">
<title>5</title>
<ellipse fill="none" stroke="#000000" cx="27" cy="-666" rx="27" ry="18"/>
<text text-anchor="middle" x="27" y="-661.8" font-family="Times,serif" font-size="14.00" fill="#000000">5</text>
</g>
<!-- 7 -->
<g id="node6" class="node">
<title>7</title>
<ellipse fill="none" stroke="#000000" cx="74" cy="-522" rx="27" ry="18"/>
<text text-anchor="middle" x="74" y="-517.8" font-family="Times,serif" font-size="14.00" fill="#000000">7</text>
</g>
<!-- 5&#45;&gt;7 -->
<g id="edge2" class="edge">
<title>5-&gt;7</title>
<path fill="none" stroke="#000000" d="M26.7827,-647.8348C27.1146,-629.2351 29.1954,-599.7649 38,-576 41.8753,-565.5401 48.1371,-555.0945 54.3601,-546.2165"/>
<polygon fill="#000000" stroke="#000000" points="57.3614,-548.0438 60.4803,-537.9184 51.7279,-543.8888 57.3614,-548.0438"/>
</g>
<!-- 6 -->
<g id="node12" class="node">
<title>6</title>
<ellipse fill="none" stroke="#000000" cx="74" cy="-594" rx="27" ry="18"/>
<text text-anchor="middle" x="74" y="-589.8" font-family="Times,serif" font-size="14.00" fill="#000000">6</text>
</g>
<!-- 5&#45;&gt;6 -->
<g id="edge3" class="edge">
<title>5-&gt;6</title>
<path fill="none" stroke="#000000" d="M37.9009,-649.3008C43.7736,-640.3043 51.1366,-629.0247 57.6787,-619.0029"/>
<polygon fill="#000000" stroke="#000000" points="60.6228,-620.8957 63.1582,-610.6087 54.7611,-617.0693 60.6228,-620.8957"/>
</g>
<!-- 10 -->
<g id="node3" class="node">
<title>10</title>
<ellipse fill="none" stroke="#000000" cx="74" cy="-450" rx="27" ry="18"/>
<text text-anchor="middle" x="74" y="-445.8" font-family="Times,serif" font-size="14.00" fill="#000000">10</text>
</g>
<!-- 11 -->
<g id="node7" class="node">
<title>11</title>
<ellipse fill="none" stroke="#000000" cx="47" cy="-378" rx="27" ry="18"/>
<text text-anchor="middle" x="47" y="-373.8" font-family="Times,serif" font-size="14.00" fill="#000000">11</text>
</g>
<!-- 10&#45;&gt;11 -->
<g id="edge4" class="edge">
<title>10-&gt;11</title>
<path fill="none" stroke="#000000" d="M67.3258,-432.2022C64.2524,-424.0064 60.5384,-414.1024 57.1305,-405.0145"/>
<polygon fill="#000000" stroke="#000000" points="60.3858,-403.7274 53.5974,-395.593 53.8315,-406.1853 60.3858,-403.7274"/>
</g>
<!-- 12 -->
<g id="node9" class="node">
<title>12</title>
<ellipse fill="none" stroke="#000000" cx="74" cy="-306" rx="27" ry="18"/>
<text text-anchor="middle" x="74" y="-301.8" font-family="Times,serif" font-size="14.00" fill="#000000">12</text>
</g>
<!-- 10&#45;&gt;12 -->
<g id="edge5" class="edge">
<title>10-&gt;12</title>
<path fill="none" stroke="#000000" d="M77.7474,-432.0931C79.7466,-421.6241 81.9966,-408.1241 83,-396 84.3197,-380.0545 84.3197,-375.9455 83,-360 82.2945,-351.4753 80.9727,-342.2703 79.5551,-333.917"/>
<polygon fill="#000000" stroke="#000000" points="82.9689,-333.1258 77.7474,-323.9069 76.0803,-334.3698 82.9689,-333.1258"/>
</g>
<!-- 19 -->
<g id="node4" class="node">
<title>19</title>
<ellipse fill="none" stroke="#000000" cx="74" cy="-90" rx="27" ry="18"/>
<text text-anchor="middle" x="74" y="-85.8" font-family="Times,serif" font-size="14.00" fill="#000000">19</text>
</g>
<!-- 22 -->
<g id="node13" class="node">
<title>22</title>
<ellipse fill="none" stroke="#000000" cx="74" cy="-18" rx="27" ry="18"/>
<text text-anchor="middle" x="74" y="-13.8" font-family="Times,serif" font-size="14.00" fill="#000000">22</text>
</g>
<!-- 19&#45;&gt;22 -->
<g id="edge6" class="edge">
<title>19-&gt;22</title>
<path fill="none" stroke="#000000" d="M74,-71.8314C74,-64.131 74,-54.9743 74,-46.4166"/>
<polygon fill="#000000" stroke="#000000" points="77.5001,-46.4132 74,-36.4133 70.5001,-46.4133 77.5001,-46.4132"/>
</g>
<!-- 15 -->
<g id="node5" class="node">
<title>15</title>
<ellipse fill="none" stroke="#000000" cx="74" cy="-234" rx="27" ry="18"/>
<text text-anchor="middle" x="74" y="-229.8" font-family="Times,serif" font-size="14.00" fill="#000000">15</text>
</g>
<!-- 16 -->
<g id="node10" class="node">
<title>16</title>
<ellipse fill="none" stroke="#000000" cx="74" cy="-162" rx="27" ry="18"/>
<text text-anchor="middle" x="74" y="-157.8" font-family="Times,serif" font-size="14.00" fill="#000000">16</text>
</g>
<!-- 15&#45;&gt;16 -->
<g id="edge7" class="edge">
<title>15-&gt;16</title>
<path fill="none" stroke="#000000" d="M74,-215.8314C74,-208.131 74,-198.9743 74,-190.4166"/>
<polygon fill="#000000" stroke="#000000" points="77.5001,-190.4132 74,-180.4133 70.5001,-190.4133 77.5001,-190.4132"/>
</g>
<!-- 7&#45;&gt;10 -->
<g id="edge8" class="edge">
<title>7-&gt;10</title>
<path fill="none" stroke="#000000" d="M74,-503.8314C74,-496.131 74,-486.9743 74,-478.4166"/>
<polygon fill="#000000" stroke="#000000" points="77.5001,-478.4132 74,-468.4133 70.5001,-478.4133 77.5001,-478.4132"/>
</g>
<!-- 11&#45;&gt;12 -->
<g id="edge9" class="edge">
<title>11-&gt;12</title>
<path fill="none" stroke="#000000" d="M53.6742,-360.2022C56.7476,-352.0064 60.4616,-342.1024 63.8695,-333.0145"/>
<polygon fill="#000000" stroke="#000000" points="67.1685,-334.1853 67.4026,-323.593 60.6142,-331.7274 67.1685,-334.1853"/>
</g>
<!-- 4&#45;&gt;5 -->
<g id="edge10" class="edge">
<title>4-&gt;5</title>
<path fill="none" stroke="#000000" d="M69.5196,-721.6621C62.4876,-712.4564 53.5653,-700.7764 45.7117,-690.4953"/>
<polygon fill="#000000" stroke="#000000" points="48.2828,-688.0953 39.431,-682.2733 42.72,-692.3446 48.2828,-688.0953"/>
</g>
<!-- 4&#45;&gt;7 -->
<g id="edge11" class="edge">
<title>4-&gt;7</title>
<path fill="none" stroke="#000000" d="M90.1686,-720.6524C103.1601,-690.6509 125.5495,-627.3566 110,-576 106.7339,-565.2127 100.5236,-554.6108 94.1687,-545.6963"/>
<polygon fill="#000000" stroke="#000000" points="96.9513,-543.5732 88.1229,-537.7156 91.3715,-547.8001 96.9513,-543.5732"/>
</g>
<!-- 4&#45;&gt;6 -->
<g id="edge12" class="edge">
<title>4-&gt;6</title>
<path fill="none" stroke="#000000" d="M80.9868,-719.7623C79.6223,-695.201 77.1804,-651.2474 75.5752,-622.3541"/>
<polygon fill="#000000" stroke="#000000" points="79.0544,-621.88 75.005,-612.0896 72.0652,-622.2684 79.0544,-621.88"/>
</g>
<!-- 12&#45;&gt;15 -->
<g id="edge13" class="edge">
<title>12-&gt;15</title>
<path fill="none" stroke="#000000" d="M74,-287.8314C74,-280.131 74,-270.9743 74,-262.4166"/>
<polygon fill="#000000" stroke="#000000" points="77.5001,-262.4132 74,-252.4133 70.5001,-262.4133 77.5001,-262.4132"/>
</g>
<!-- 16&#45;&gt;19 -->
<g id="edge14" class="edge">
<title>16-&gt;19</title>
<path fill="none" stroke="#000000" d="M74,-143.8314C74,-136.131 74,-126.9743 74,-118.4166"/>
<polygon fill="#000000" stroke="#000000" points="77.5001,-118.4132 74,-108.4133 70.5001,-118.4133 77.5001,-118.4132"/>
</g>
<!-- 0 -->
<g id="node11" class="node">
<title>0</title>
<ellipse fill="none" stroke="#000000" cx="82" cy="-882" rx="27" ry="18"/>
<text text-anchor="middle" x="82" y="-877.8" font-family="Times,serif" font-size="14.00" fill="#000000">0</text>
</g>
<!-- 0&#45;&gt;1 -->
<g id="edge15" class="edge">
<title>0-&gt;1</title>
<path fill="none" stroke="#000000" d="M82,-863.8314C82,-856.131 82,-846.9743 82,-838.4166"/>
<polygon fill="#000000" stroke="#000000" points="85.5001,-838.4132 82,-828.4133 78.5001,-838.4133 85.5001,-838.4132"/>
</g>
<!-- 6&#45;&gt;7 -->
<g id="edge16" class="edge">
<title>6-&gt;7</title>
<path fill="none" stroke="#000000" d="M74,-575.8314C74,-568.131 74,-558.9743 74,-550.4166"/>
<polygon fill="#000000" stroke="#000000" points="77.5001,-550.4132 74,-540.4133 70.5001,-550.4133 77.5001,-550.4132"/>
</g>
</g>
</svg>